<svg xmlns="http://www.w3.org/2000/svg" xmlns:xlink="http://www.w3.org/1999/xlink" width="500" zoomAndPan="magnify" viewBox="0 0 375 374.999991" height="500" preserveAspectRatio="xMidYMid meet" version="1.0"><defs><g/><clipPath id="id1"><path d="M 62.566406 0.285156 L 324.835938 0.285156 L 324.835938 351.578125 L 62.566406 351.578125 Z M 62.566406 0.285156 " clip-rule="nonzero"/></clipPath></defs><g clip-path="url(#id1)"><path fill="#211d1d" d="M 193.683594 333.453125 C 147.859375 333.453125 121.492188 312 109.40625 280.339844 C 131.703125 297.417969 151.804688 316.554688 204.132812 317.902344 C 223.308594 318.394531 246.191406 315.988281 262.558594 310.296875 C 248.507812 324.769531 226.722656 333.453125 193.683594 333.453125 Z M 310.066406 206.675781 C 289.417969 158.191406 263.226562 144.769531 260.820312 142.195312 C 261.757812 141.046875 262.675781 139.871094 263.558594 138.675781 C 264.125 137.90625 264.679688 137.128906 265.21875 136.34375 C 272.007812 126.5 276.8125 115.191406 279.066406 102.984375 C 279.195312 102.269531 279.316406 101.550781 279.433594 100.828125 C 280.144531 96.367188 280.511719 91.789062 280.511719 87.125 C 280.511719 39.167969 241.636719 0.285156 193.6875 0.285156 C 145.738281 0.285156 106.859375 39.167969 106.859375 87.125 C 106.859375 91.644531 107.207031 96.089844 107.875 100.421875 C 107.980469 101.101562 108.089844 101.785156 108.210938 102.464844 C 110.273438 114.015625 114.617188 124.777344 120.757812 134.261719 C 121.289062 135.082031 121.832031 135.890625 122.386719 136.6875 C 123.785156 138.695312 125.265625 140.636719 126.816406 142.515625 C 124.773438 144.6875 96.785156 160.042969 77.308594 206.675781 C 66.414062 232.769531 57.550781 271.566406 65.804688 286.050781 C 69.304688 292.199219 77.714844 285.75 87.75 272.289062 C 93.082031 299.691406 108.078125 322.542969 132.089844 336.539062 C 132.417969 336.730469 132.75 336.921875 133.082031 337.113281 C 134.886719 338.136719 136.742188 339.113281 138.644531 340.035156 L 138.648438 340.035156 C 148.226562 344.695312 159.058594 348.054688 171.113281 349.894531 C 171.871094 350.011719 172.636719 350.117188 173.402344 350.21875 C 179.75 351.078125 186.433594 351.53125 193.441406 351.53125 C 200.832031 351.53125 207.792969 351.144531 214.347656 350.390625 L 214.351562 350.390625 C 214.894531 350.332031 215.4375 350.265625 215.976562 350.199219 C 229.867188 348.480469 241.878906 345.113281 252.148438 340.355469 C 253.679688 339.652344 255.171875 338.914062 256.621094 338.144531 C 256.898438 337.992188 257.171875 337.851562 257.441406 337.703125 C 282.75 323.980469 296.289062 301.039062 300.429688 273.367188 C 310.105469 286.085938 318.160156 292.03125 321.570312 286.050781 C 329.820312 271.566406 321.136719 232.691406 310.066406 206.675781 " fill-opacity="1" fill-rule="nonzero"/></g><path fill="#ffffff" d="M 247.3125 149.746094 C 242.300781 145.578125 236.972656 141.949219 231.4375 138.929688 C 244.867188 135.269531 255.582031 129.597656 260.257812 122.160156 C 269.707031 107.113281 265.84375 53.210938 239.058594 54.816406 C 207.398438 56.710938 226.203125 105.515625 222.875 110.519531 C 208.457031 132.222656 173.945312 126.632812 165.976562 112.097656 C 163.957031 108.414062 172.304688 56.984375 141.746094 58.046875 C 120.144531 58.800781 120.144531 110.980469 129.832031 122.535156 C 134.609375 130.082031 144.078125 135.503906 155.851562 138.976562 C 150.347656 141.984375 145.050781 145.601562 140.0625 149.746094 C 117.527344 168.449219 101.296875 197.917969 101.296875 231.078125 C 101.296875 237.484375 101.617188 243.75 102.300781 249.828125 C 103.503906 260.703125 105.832031 270.96875 109.40625 280.339844 C 131.703125 297.417969 151.804688 316.554688 204.132812 317.902344 C 223.308594 318.394531 246.1875 315.988281 262.558594 310.296875 C 277.066406 295.382812 283.367188 274.324219 285.335938 250.289062 C 285.851562 244.070312 286.074219 237.652344 286.074219 231.078125 C 286.074219 197.925781 269.847656 168.449219 247.3125 149.746094 " fill-opacity="1" fill-rule="nonzero"/><path fill="#ff914d" d="M 193.433594 119.832031 C 188.75 119.832031 175.835938 102.394531 178.496094 98.914062 C 183.519531 92.34375 204.839844 93.457031 208.992188 98.914062 C 211.097656 101.683594 198.894531 119.832031 193.433594 119.832031 " fill-opacity="1" fill-rule="nonzero"/><path fill="#211d1d" d="M 162.222656 82.078125 C 162.222656 87.46875 157.855469 91.839844 152.46875 91.839844 C 147.078125 91.839844 142.710938 87.46875 142.710938 82.078125 C 142.710938 76.695312 147.078125 72.324219 152.46875 72.324219 C 154.988281 72.324219 157.285156 73.285156 159.019531 74.847656 L 154.304688 81.695312 L 162.171875 81.066406 C 162.207031 81.398438 162.222656 81.738281 162.222656 82.078125 " fill-opacity="1" fill-rule="nonzero"/><path fill="#211d1d" d="M 244.65625 82.078125 C 244.65625 87.46875 240.300781 91.839844 234.90625 91.839844 C 229.523438 91.839844 225.152344 87.46875 225.152344 82.078125 C 225.152344 76.695312 229.523438 72.324219 234.90625 72.324219 C 237.4375 72.324219 239.726562 73.285156 241.457031 74.847656 L 236.746094 81.695312 L 244.613281 81.066406 C 244.644531 81.398438 244.65625 81.738281 244.65625 82.078125 " fill-opacity="1" fill-rule="nonzero"/><path fill="#545454" d="M 262.558594 310.296875 C 248.507812 324.765625 226.722656 333.453125 193.683594 333.453125 C 147.859375 333.453125 121.492188 312 109.40625 280.339844 C 131.703125 297.417969 151.804688 316.554688 204.132812 317.902344 C 223.308594 318.394531 246.1875 315.988281 262.558594 310.296875 " fill-opacity="1" fill-rule="nonzero"/><path fill="#ff914d" d="M 260.34375 341.585938 C 268.601562 353.5625 264.84375 372.527344 264.84375 372.527344 C 264.375 374.882812 262.511719 375.308594 260.703125 373.484375 L 251.582031 364.28125 C 249.769531 362.457031 248.425781 361.78125 246.304688 364.957031 L 242.734375 372.160156 C 241.640625 374.363281 239.523438 374.503906 238.023438 372.488281 L 232.1875 364.613281 C 229.121094 360.839844 228.535156 361.484375 225.710938 363.882812 L 217.578125 370.261719 C 215.511719 371.886719 213.425781 371.289062 212.933594 368.9375 C 212.933594 368.9375 212.140625 365.082031 212.21875 359.863281 C 213.785156 331.128906 251.585938 329.269531 260.34375 341.585938 " fill-opacity="1" fill-rule="nonzero"/><path fill="#ff914d" d="M 128.816406 340.496094 C 119.652344 351.980469 121.925781 371.121094 121.925781 371.121094 C 122.207031 373.488281 124.035156 374.019531 125.984375 372.300781 L 135.800781 363.628906 C 137.746094 361.910156 139.148438 361.3125 141.011719 364.597656 L 144.019531 371.984375 C 144.933594 374.242188 147.035156 374.503906 148.6875 372.574219 L 155.117188 365.042969 C 158.476562 361.445312 159.015625 362.121094 161.640625 364.679688 L 169.261719 371.5 C 171.199219 373.230469 173.332031 372.75 174 370.433594 C 174 370.433594 175.09375 366.621094 175.417969 361.417969 C 176.085938 332.65625 138.507812 328.699219 128.816406 340.496094 " fill-opacity="1" fill-rule="nonzero"/><g fill="#ff914d" fill-opacity="1"><g transform="translate(110.813139, 252.53652)"><g><path d="M 13.234375 -27.3125 L 13.234375 0 L 3.203125 0 L 3.203125 -44.015625 L 13.234375 -44.015625 L 30.734375 -16.703125 L 30.84375 -16.703125 L 30.84375 -44.015625 L 40.875 -44.015625 L 40.875 0 L 30.84375 0 L 13.34375 -27.3125 Z M 13.234375 -27.3125 "/></g></g></g><g fill="#ff914d" fill-opacity="1"><g transform="translate(154.881857, 252.53652)"><g><path d="M 5.796875 -3.25 C 2.753906 -5.957031 1.234375 -9.425781 1.234375 -13.65625 C 1.234375 -17.894531 2.8125 -21.375 5.96875 -24.09375 C 9.132812 -26.8125 13.050781 -28.171875 17.71875 -28.171875 C 22.300781 -28.171875 26.164062 -26.800781 29.3125 -24.0625 C 32.46875 -21.320312 34.046875 -17.851562 34.046875 -13.65625 C 34.046875 -9.457031 32.503906 -6 29.421875 -3.28125 C 26.347656 -0.5625 22.445312 0.796875 17.71875 0.796875 C 12.8125 0.796875 8.835938 -0.550781 5.796875 -3.25 Z M 13.09375 -18.296875 C 11.875 -17.085938 11.265625 -15.539062 11.265625 -13.65625 C 11.265625 -11.769531 11.847656 -10.226562 13.015625 -9.03125 C 14.191406 -7.84375 15.738281 -7.25 17.65625 -7.25 C 19.507812 -7.25 21.03125 -7.851562 22.21875 -9.0625 C 23.414062 -10.28125 24.015625 -11.8125 24.015625 -13.65625 C 24.015625 -15.539062 23.398438 -17.085938 22.171875 -18.296875 C 20.941406 -19.503906 19.4375 -20.109375 17.65625 -20.109375 C 15.84375 -20.109375 14.320312 -19.503906 13.09375 -18.296875 Z M 13.09375 -18.296875 "/></g></g></g><g fill="#ff914d" fill-opacity="1"><g transform="translate(190.147494, 252.53652)"><g><path d="M 3.203125 0 L 3.203125 -27.375 L 12.640625 -27.375 L 12.640625 -24.484375 L 12.75 -24.484375 C 15.207031 -26.941406 17.820312 -28.171875 20.59375 -28.171875 C 22.582031 -28.171875 24.445312 -27.757812 26.1875 -26.9375 C 27.9375 -26.125 29.253906 -24.863281 30.140625 -23.15625 C 32.921875 -26.5 35.945312 -28.171875 39.21875 -28.171875 C 42.132812 -28.171875 44.640625 -27.351562 46.734375 -25.71875 C 48.835938 -24.082031 49.890625 -21.519531 49.890625 -18.03125 L 49.890625 0 L 40.453125 0 L 40.453125 -15.46875 C 40.453125 -16.925781 40.050781 -18.144531 39.25 -19.125 C 38.445312 -20.101562 37.242188 -20.59375 35.640625 -20.59375 C 34.253906 -20.59375 33.195312 -20.175781 32.46875 -19.34375 C 31.738281 -18.507812 31.335938 -17.503906 31.265625 -16.328125 L 31.265625 0 L 21.828125 0 L 21.828125 -15.46875 C 21.828125 -16.925781 21.425781 -18.144531 20.625 -19.125 C 19.820312 -20.101562 18.617188 -20.59375 17.015625 -20.59375 C 15.554688 -20.59375 14.460938 -20.140625 13.734375 -19.234375 C 13.003906 -18.328125 12.640625 -17.25 12.640625 -16 L 12.640625 0 Z M 3.203125 0 "/></g></g></g><g fill="#ff914d" fill-opacity="1"><g transform="translate(242.699168, 252.53652)"><g><path d="M 5.0625 -3.390625 C 2.507812 -6.179688 1.234375 -9.601562 1.234375 -13.65625 C 1.234375 -17.71875 2.507812 -21.148438 5.0625 -23.953125 C 7.625 -26.765625 10.878906 -28.171875 14.828125 -28.171875 C 18.460938 -28.171875 21.453125 -27.035156 23.796875 -24.765625 L 23.796875 -27.375 L 33.25 -27.375 L 33.25 0 L 23.90625 0 L 23.90625 -3.09375 L 23.796875 -3.09375 C 21.453125 -0.5 18.460938 0.796875 14.828125 0.796875 C 10.878906 0.796875 7.625 -0.597656 5.0625 -3.390625 Z M 13.09375 -18.296875 C 11.875 -17.085938 11.265625 -15.539062 11.265625 -13.65625 C 11.265625 -11.769531 11.847656 -10.226562 13.015625 -9.03125 C 14.191406 -7.84375 15.738281 -7.25 17.65625 -7.25 C 19.507812 -7.25 21.03125 -7.851562 22.21875 -9.0625 C 23.414062 -10.28125 24.015625 -11.8125 24.015625 -13.65625 C 24.015625 -15.539062 23.398438 -17.085938 22.171875 -18.296875 C 20.941406 -19.503906 19.4375 -20.109375 17.65625 -20.109375 C 15.84375 -20.109375 14.320312 -19.503906 13.09375 -18.296875 Z M 13.09375 -18.296875 "/></g></g></g></svg>